<svg width="72" height="73" viewBox="0 0 72 73" fill="none" xmlns="http://www.w3.org/2000/svg">
<g clip-path="url(#clip0_466_1750)">
<path d="M57.565 34.6675H47.1363C41.8832 34.6675 37.6245 30.4089 37.6245 25.1548V14.7261H34.4539V25.1548C34.4539 30.4079 30.1953 34.6666 24.9412 34.6666H14.5125V37.8372H24.9412C30.1943 37.8372 34.453 42.0958 34.453 47.3499V57.7786H37.6236V47.3499C37.6236 42.0968 41.8822 37.8381 47.1363 37.8381H57.565V34.6675Z" fill="#68C184"/>
<path d="M72.0009 72.5823V69.4117H68.8304V72.5823H72.0009Z" fill="#001E0A"/>
<path d="M72 49.4703V46.2997H68.8294V49.4703H72Z" fill="#001E0A"/>
<path d="M48.8889 72.5823V69.4117H45.7183V72.5823H48.8889Z" fill="#001E0A"/>
<path d="M48.888 49.4703V46.2997H45.7174V49.4703H48.888Z" fill="#001E0A"/>
<path d="M71.9244 26.2817V23.1111H68.7538V26.2817H71.9244Z" fill="#001E0A"/>
<path d="M71.9244 3.17059V0L68.7538 0V3.17059H71.9244Z" fill="#001E0A"/>
<path d="M48.8123 3.17059V0L45.6417 0V3.17059H48.8123Z" fill="#001E0A"/>
<path d="M48.8123 26.2826V23.1121H45.6418V26.2826H48.8123Z" fill="#001E0A"/>
<path d="M26.3592 72.5833V69.4127H23.1886V72.5833H26.3592Z" fill="#001E0A"/>
<path d="M26.3582 49.4712V46.3007H23.1877V49.4712H26.3582Z" fill="#001E0A"/>
<path d="M3.24716 72.5833V69.4127H0.0765741V72.5833H3.24716Z" fill="#001E0A"/>
<path d="M3.24716 49.4712V46.3007H0.076571V49.4712H3.24716Z" fill="#001E0A"/>
<path d="M26.2826 3.17059V0L23.112 0V3.17059H26.2826Z" fill="#001E0A"/>
<path d="M26.2826 26.2826V23.1121H23.112V26.2826H26.2826Z" fill="#001E0A"/>
<path d="M3.17059 26.2827V23.1121H3.8147e-06V26.2827H3.17059Z" fill="#001E0A"/>
<path d="M3.17059 3.17059V0L3.09944e-06 0V3.17059H3.17059Z" fill="#001E0A"/>
</g>
<defs>
<clipPath id="clip0_466_1750">
<rect width="72" height="72.5833" fill="white"/>
</clipPath>
</defs>
</svg>
