<svg width="369" height="68" viewBox="0 0 369 68" fill="none" xmlns="http://www.w3.org/2000/svg">
<g clip-path="url(#clip0_7_213)">
<path fill-rule="evenodd" clip-rule="evenodd" d="M204.47 49.38C200.18 49.38 196.87 48.49 194.55 46.72C192.23 44.95 190.98 42.39 190.8 39.04H197.28C197.34 40.61 197.95 41.81 199.1 42.66C200.25 43.5 202.01 43.92 204.38 43.92C206.13 43.92 207.52 43.61 208.57 42.99C209.62 42.37 210.15 41.48 210.15 40.33C210.15 39.47 209.84 38.75 209.22 38.18C208.6 37.6 207.83 37.14 206.91 36.8C205.99 36.46 204.71 36.08 203.05 35.67C200.77 35.08 198.89 34.48 197.41 33.87C195.93 33.26 194.67 32.34 193.64 31.1C192.6 29.86 192.09 28.23 192.09 26.22C192.09 24.45 192.58 22.87 193.55 21.49C194.53 20.11 195.9 19.05 197.68 18.3C199.46 17.55 201.53 17.17 203.89 17.17C207.59 17.17 210.52 17.98 212.68 19.61C214.84 21.24 216.04 23.57 216.27 26.62H209.79C209.7 25.29 209.19 24.29 208.26 23.62C207.33 22.95 205.92 22.62 204.02 22.62C202.3 22.62 200.96 22.92 199.98 23.53C199 24.14 198.52 24.97 198.52 26.04C198.52 26.9 198.82 27.62 199.43 28.19C200.04 28.77 200.81 29.22 201.74 29.54C202.67 29.87 203.95 30.24 205.58 30.65C207.89 31.24 209.77 31.84 211.24 32.45C212.7 33.06 213.96 33.98 215.01 35.22C216.06 36.46 216.59 38.1 216.59 40.15C216.59 41.98 216.08 43.6 215.06 45.01C214.04 46.42 212.61 47.49 210.78 48.25C208.95 49 206.85 49.38 204.48 49.38H204.47ZM55.42 48.78V17.74H67.84C70.24 17.74 72.34 18.19 74.16 19.09C75.98 19.99 77.39 21.26 78.4 22.88C79.41 24.51 79.91 26.37 79.91 28.47C79.91 30.57 79.41 32.43 78.4 34.06C77.39 35.69 75.98 36.95 74.16 37.85C72.34 38.75 70.23 39.2 67.84 39.2H61.63V48.78H55.42ZM67.66 33.48H61.54V23.4H67.66C69.55 23.4 71 23.84 72.01 24.73C73.02 25.62 73.52 26.86 73.52 28.46C73.52 29.53 73.29 30.44 72.83 31.19C72.37 31.95 71.7 32.52 70.83 32.9C69.96 33.29 68.9 33.48 67.66 33.48ZM93.49 49.29C91.18 49.29 89.11 48.78 87.28 47.76C85.45 46.74 84 45.33 82.95 43.52C81.9 41.72 81.37 39.67 81.37 37.4C81.37 35.13 81.89 33.08 82.92 31.28C83.96 29.48 85.4 28.06 87.25 27.04C89.1 26.02 91.18 25.51 93.48 25.51C95.78 25.51 97.82 26.02 99.67 27.04C101.52 28.06 102.96 29.47 104 31.28C105.04 33.09 105.55 35.13 105.55 37.4C105.55 39.67 105.03 41.72 104 43.52C102.96 45.32 101.52 46.74 99.67 47.76C97.82 48.78 95.76 49.29 93.48 49.29H93.49ZM93.49 44.14C94.73 44.14 95.82 43.87 96.75 43.32C97.68 42.77 98.4 42 98.9 40.99C99.4 39.98 99.65 38.79 99.65 37.4C99.65 36.01 99.4 34.85 98.9 33.83C98.4 32.81 97.68 32.03 96.75 31.48C95.82 30.93 94.73 30.66 93.49 30.66C92.25 30.66 91.12 30.93 90.18 31.48C89.25 32.03 88.53 32.81 88.03 33.83C87.53 34.85 87.28 36.04 87.28 37.4C87.28 38.76 87.53 39.99 88.03 40.99C88.53 42 89.25 42.77 90.18 43.32C91.11 43.87 92.21 44.14 93.49 44.14ZM107.78 25.99L112.31 48.8H121.65L124.76 31.32H126L129.06 48.8H138.42L142.95 25.99H137.23L134.17 43.47H132.75L129.6 25.99H121.26L118.11 43.47H116.65L113.59 25.99H107.78ZM157.35 49.29C155.1 49.29 153.05 48.77 151.2 47.71C149.35 46.66 147.89 45.23 146.81 43.43C145.73 41.63 145.19 39.61 145.19 37.4C145.19 35.19 145.73 33.16 146.81 31.34C147.89 29.52 149.35 28.09 151.2 27.06C153.05 26.02 155.1 25.51 157.35 25.51C159.6 25.51 161.62 26.01 163.43 27.02C165.23 28.03 166.67 29.47 167.73 31.35C168.79 33.23 169.33 35.41 169.33 37.89V39.18H151.196C151.325 39.8674 151.533 40.5046 151.82 41.09C152.34 42.15 153.08 42.97 154.04 43.53C155 44.09 156.12 44.37 157.39 44.37C158.78 44.37 159.92 44.1 160.81 43.57C161.7 43.04 162.41 42.31 162.94 41.4H168.84C168.4 42.85 167.65 44.17 166.6 45.37C165.55 46.57 164.23 47.52 162.65 48.23C161.07 48.94 159.3 49.29 157.35 49.29ZM151.82 33.75C151.611 34.1725 151.444 34.6225 151.319 35.1H163.433C163.262 34.4475 163.01 33.84 162.67 33.28C162.14 32.39 161.42 31.7 160.52 31.19C159.62 30.69 158.57 30.44 157.39 30.44C156.12 30.44 155 30.73 154.04 31.31C153.08 31.89 152.34 32.7 151.82 33.75ZM173.81 25.99V48.8L173.8 48.81H179.52V36.96C179.52 35.16 180.05 33.73 181.1 32.68C182.15 31.63 183.53 31.1 185.25 31.1H188.58V25.73H185.7C184.13 25.73 182.82 26.08 181.75 26.79C180.68 27.5 179.91 28.37 179.44 29.41H179.22V25.99H173.81ZM218.23 26.17V31.01H223.02V48.79H235.58V43.78H228.7V31.01H234.34V26.17H228.7V20.4H223.02V26.17H218.23ZM239.7 48.8V25.99H245.11V29.41H245.33C245.8 28.37 246.57 27.5 247.64 26.79C248.71 26.08 250.02 25.73 251.59 25.73H254.47V31.1H251.14C249.42 31.1 248.04 31.63 246.99 32.68C245.94 33.73 245.41 35.16 245.41 36.96V48.81H239.69L239.7 48.8ZM261.6 47.71C263.45 48.77 265.5 49.29 267.75 49.29C269.7 49.29 271.47 48.94 273.05 48.23C274.63 47.52 275.95 46.57 277 45.37C278.05 44.17 278.8 42.85 279.24 41.4H273.34C272.81 42.31 272.1 43.04 271.21 43.57C270.32 44.1 269.18 44.37 267.79 44.37C266.52 44.37 265.4 44.09 264.44 43.53C263.48 42.97 262.74 42.15 262.22 41.09C261.933 40.5046 261.725 39.8674 261.596 39.18H279.73V37.89C279.73 35.41 279.19 33.23 278.13 31.35C277.07 29.47 275.63 28.03 273.83 27.02C272.02 26.01 270 25.51 267.75 25.51C265.5 25.51 263.45 26.02 261.6 27.06C259.75 28.09 258.29 29.52 257.21 31.34C256.13 33.16 255.59 35.19 255.59 37.4C255.59 39.61 256.13 41.63 257.21 43.43C258.29 45.23 259.75 46.66 261.6 47.71ZM261.719 35.1C261.844 34.6225 262.011 34.1725 262.22 33.75C262.74 32.7 263.48 31.89 264.44 31.31C265.4 30.73 266.52 30.44 267.79 30.44C268.97 30.44 270.02 30.69 270.92 31.19C271.82 31.7 272.54 32.39 273.07 33.28C273.41 33.84 273.662 34.4475 273.833 35.1H261.719ZM293.35 49.29C291.46 49.29 289.71 48.8 288.11 47.83C286.51 46.85 285.24 45.46 284.29 43.66C283.34 41.86 282.87 39.77 282.87 37.4C282.87 35.03 283.34 32.98 284.29 31.17C285.24 29.35 286.51 27.95 288.11 26.98C289.71 26 291.45 25.52 293.35 25.52C295.04 25.52 296.54 25.87 297.85 26.58C299.17 27.29 300.16 28.19 300.85 29.29H301.07V26.01H306.44V48.82H301.07V45.58H300.85C300.17 46.64 299.17 47.53 297.85 48.24C296.53 48.95 295.03 49.3 293.35 49.3V49.29ZM294.86 44.28C296.01 44.28 297.03 44.01 297.92 43.46C298.81 42.91 299.5 42.13 300.01 41.11C300.51 40.09 300.76 38.85 300.76 37.4C300.76 35.95 300.51 34.75 300.01 33.72C299.51 32.68 298.81 31.9 297.92 31.37C297.03 30.84 296.01 30.57 294.86 30.57C293.65 30.57 292.58 30.84 291.66 31.37C290.74 31.9 290.03 32.69 289.53 33.72C289.03 34.76 288.78 35.98 288.78 37.4C288.78 38.82 289.03 40.08 289.53 41.11C290.03 42.13 290.74 42.91 291.66 43.46C292.58 44.01 293.64 44.28 294.86 44.28ZM312.21 25.99V48.8L312.22 48.83H317.94V36.49C317.94 34.69 318.41 33.27 319.34 32.23C320.27 31.2 321.49 30.68 323 30.68C324.36 30.68 325.42 31.13 326.17 32.03C326.92 32.93 327.3 34.22 327.3 35.91V48.82H333.02V36.48C333.02 34.68 333.49 33.26 334.42 32.22C335.35 31.19 336.57 30.67 338.08 30.67C339.44 30.67 340.5 31.12 341.25 32.02C342 32.92 342.38 34.21 342.38 35.9V48.81H348.1V35.05C348.1 33.04 347.76 31.32 347.08 29.9C346.4 28.48 345.43 27.39 344.17 26.64C342.91 25.89 341.39 25.51 339.71 25.51C338.03 25.51 336.53 25.91 335.21 26.71C333.89 27.51 332.82 28.52 331.99 29.73H331.77C331.21 28.51 330.32 27.51 329.11 26.71C327.9 25.91 326.45 25.51 324.76 25.51C323.25 25.51 321.87 25.89 320.61 26.64C319.36 27.39 318.43 28.28 317.84 29.32H317.62V25.99H312.21Z" fill="white"/>
<path fill-rule="evenodd" clip-rule="evenodd" d="M20.86 9.41C18.19 9.41 15.74 20.48 13.95 33.99H27.77C25.94 20.28 23.53 9.41 20.86 9.41ZM34.69 58.57C37.36 58.57 39.81 47.5 41.6 33.99H27.78C29.61 47.7 32.02 58.57 34.69 58.57Z" fill="#68C184"/>
</g>
<defs>
<clipPath id="clip0_7_213">
<rect width="368.71" height="66.96" fill="white" transform="translate(0 0.959991)"/>
</clipPath>
</defs>
</svg>
