<svg width="529" height="629" viewBox="0 0 529 629" fill="none" xmlns="http://www.w3.org/2000/svg">
<path d="M147.62 0.877999V3.326H143.732V14H140.906V3.326H137.072V0.877999H147.62ZM145.059 9.194C145.059 6.242 147.075 4.19 150.081 4.19C153.105 4.19 155.103 6.224 155.103 9.194C155.103 12.128 153.105 14.162 150.081 14.162C147.075 14.162 145.059 12.146 145.059 9.194ZM147.777 9.194C147.777 10.904 148.659 11.966 150.081 11.966C151.521 11.966 152.367 10.85 152.367 9.176C152.367 7.484 151.503 6.404 150.063 6.404C148.623 6.404 147.777 7.52 147.777 9.194ZM155.195 4.37H156.851V1.796L159.515 1.346V4.37H161.693V6.53H159.515V10.688C159.515 11.66 159.857 12.02 160.703 12.02C160.973 12.02 161.423 11.984 161.693 11.912V13.982C161.027 14.108 160.523 14.162 159.893 14.162C157.049 14.162 156.851 12.272 156.851 11.03V6.53H155.195V4.37ZM162.284 11.318C162.284 9.338 163.76 8.402 166.136 8.222L168.692 8.042V7.556C168.692 6.602 168.062 6.26 167.072 6.26C165.992 6.26 165.344 6.8 165.362 7.61H162.86C162.806 5.558 164.516 4.19 167.162 4.19C169.97 4.19 171.356 5.27 171.356 7.34V11.552C171.356 11.858 171.464 12.182 171.878 12.182C171.968 12.182 172.112 12.164 172.202 12.128V13.964C171.752 14.072 171.266 14.144 170.852 14.144C169.61 14.144 168.908 13.568 168.818 12.506H168.692C168.242 13.514 166.964 14.18 165.506 14.18C163.58 14.18 162.284 13.046 162.284 11.318ZM164.984 11.048C164.984 11.804 165.578 12.164 166.478 12.164C167.81 12.164 168.692 11.318 168.692 10.112V9.644L166.622 9.842C165.452 9.932 164.984 10.346 164.984 11.048ZM173.282 14V0.625999H175.946V14H173.282ZM180.722 14V0.877999H184.304L187.796 8.348H187.922L191.432 0.877999H194.978V14H192.224V8.384L192.404 4.712H192.278L187.868 13.802L183.458 4.712H183.314L183.494 8.402V14H180.722ZM196.317 9.194C196.317 6.242 198.333 4.19 201.339 4.19C204.363 4.19 206.361 6.224 206.361 9.194C206.361 12.128 204.363 14.162 201.339 14.162C198.333 14.162 196.317 12.146 196.317 9.194ZM199.035 9.194C199.035 10.904 199.917 11.966 201.339 11.966C202.779 11.966 203.625 10.85 203.625 9.176C203.625 7.484 202.761 6.404 201.321 6.404C199.881 6.404 199.035 7.52 199.035 9.194ZM207.489 14V4.37H209.847L210.171 6.134H210.333C210.981 4.874 212.151 4.19 213.627 4.19C215.751 4.19 217.119 5.522 217.119 8.096V14H214.455V8.618C214.455 7.07 213.717 6.404 212.511 6.404C211.017 6.404 210.171 7.466 210.171 9.05V14H207.489ZM217.633 4.37H219.289V1.796L221.953 1.346V4.37H224.131V6.53H221.953V10.688C221.953 11.66 222.295 12.02 223.141 12.02C223.411 12.02 223.861 11.984 224.131 11.912V13.982C223.465 14.108 222.961 14.162 222.331 14.162C219.487 14.162 219.289 12.272 219.289 11.03V6.53H217.633V4.37ZM225.12 14V0.625999H227.802V6.134H227.946C228.612 4.874 229.782 4.19 231.258 4.19C233.364 4.19 234.732 5.504 234.732 8.096V14H232.068V8.618C232.068 7.07 231.33 6.404 230.124 6.404C228.648 6.404 227.802 7.448 227.802 9.032V14H225.12ZM236.229 14V0.625999H238.893V14H236.229ZM239.601 4.37H242.535L244.677 10.796H244.803L246.909 4.37H249.573L245.937 14.324C245.307 16.052 244.137 17.276 241.779 17.276C241.149 17.276 240.609 17.186 240.267 17.06V14.918C240.609 15.062 240.969 15.116 241.311 15.116C242.499 15.116 242.967 14.594 243.165 13.946L243.363 13.424L239.601 4.37ZM256.03 9.878C256.048 11.21 257.056 11.93 258.82 11.93C260.386 11.93 261.268 11.318 261.268 10.328C261.268 9.122 260.008 8.924 259.576 8.834L257.686 8.492C256.246 8.24 253.366 7.646 253.366 4.73C253.366 2.3 255.418 0.715999 258.694 0.715999C261.916 0.715999 263.896 2.264 263.914 4.604H261.034C260.944 3.398 259.918 2.912 258.55 2.912C257.164 2.912 256.354 3.434 256.354 4.37C256.354 5.396 257.506 5.666 258.316 5.81L260.53 6.206C262.798 6.602 264.4 7.736 264.4 9.932C264.4 12.614 262.15 14.18 258.748 14.18C255.238 14.18 253.132 12.434 253.096 9.878H256.03ZM265.655 17.006V4.37H267.995L268.337 6.134H268.481C269.021 4.928 270.317 4.19 271.811 4.19C274.403 4.19 275.987 6.116 275.987 9.176C275.987 12.326 274.295 14.18 271.811 14.18C270.119 14.18 268.931 13.37 268.481 12.254H268.337V17.006H265.655ZM268.337 8.852V9.536C268.337 10.976 269.309 11.984 270.785 11.984C272.423 11.984 273.269 10.832 273.269 9.158C273.269 7.34 272.279 6.386 270.821 6.386C269.363 6.386 268.337 7.412 268.337 8.852ZM281.881 14.18C278.911 14.18 276.895 12.218 276.895 9.212C276.895 6.152 278.893 4.19 281.845 4.19C284.707 4.19 286.525 5.936 286.525 8.564C286.525 9.014 286.489 9.482 286.417 9.806H279.577C279.523 11.3 280.441 12.146 281.845 12.146C282.961 12.146 283.753 11.642 283.951 10.958H286.597C286.255 12.884 284.383 14.18 281.881 14.18ZM279.595 8.042H283.861C283.843 6.89 283.069 6.206 281.755 6.206C280.513 6.206 279.649 6.944 279.595 8.042ZM287.698 14V4.37H290.056L290.38 6.134H290.542C291.19 4.874 292.36 4.19 293.836 4.19C295.96 4.19 297.328 5.522 297.328 8.096V14H294.664V8.618C294.664 7.07 293.926 6.404 292.72 6.404C291.226 6.404 290.38 7.466 290.38 9.05V14H287.698ZM308.708 14H306.386L306.044 12.29H305.9C305.342 13.514 303.992 14.18 302.516 14.18C299.996 14.18 298.376 12.272 298.376 9.23C298.376 6.08 300.05 4.19 302.534 4.19C304.262 4.19 305.396 5.054 305.9 6.224H306.044V0.625999H308.708V14ZM306.044 9.572V8.852C306.044 7.268 304.982 6.386 303.542 6.386C301.94 6.386 301.112 7.502 301.112 9.212C301.112 11.048 302.066 11.984 303.506 11.984C305.09 11.984 306.044 10.994 306.044 9.572ZM313.22 9.068C313.22 8.084 313.31 7.124 313.49 6.188C313.682 5.252 313.976 4.358 314.372 3.506C314.768 2.654 315.266 1.868 315.866 1.148H318.062C317.522 1.892 317.066 2.696 316.694 3.56C316.322 4.424 316.04 5.318 315.848 6.242C315.656 7.166 315.56 8.102 315.56 9.05C315.56 9.974 315.656 10.898 315.848 11.822C316.04 12.734 316.316 13.61 316.676 14.45C317.048 15.302 317.504 16.1 318.044 16.844H315.866C315.266 16.136 314.768 15.362 314.372 14.522C313.976 13.694 313.682 12.818 313.49 11.894C313.31 10.97 313.22 10.028 313.22 9.068ZM319.374 17.006V4.37H321.714L322.056 6.134H322.2C322.74 4.928 324.036 4.19 325.53 4.19C328.122 4.19 329.706 6.116 329.706 9.176C329.706 12.326 328.014 14.18 325.53 14.18C323.838 14.18 322.65 13.37 322.2 12.254H322.056V17.006H319.374ZM322.056 8.852V9.536C322.056 10.976 323.028 11.984 324.504 11.984C326.142 11.984 326.988 10.832 326.988 9.158C326.988 7.34 325.998 6.386 324.54 6.386C323.082 6.386 322.056 7.412 322.056 8.852ZM335.6 14.18C332.63 14.18 330.614 12.218 330.614 9.212C330.614 6.152 332.612 4.19 335.564 4.19C338.426 4.19 340.244 5.936 340.244 8.564C340.244 9.014 340.208 9.482 340.136 9.806H333.296C333.242 11.3 334.16 12.146 335.564 12.146C336.68 12.146 337.472 11.642 337.67 10.958H340.316C339.974 12.884 338.102 14.18 335.6 14.18ZM333.314 8.042H337.58C337.562 6.89 336.788 6.206 335.474 6.206C334.232 6.206 333.368 6.944 333.314 8.042ZM341.417 14V4.37H343.757L343.955 6.26H344.063C344.567 4.748 346.025 4.064 347.771 4.262V6.656C345.395 6.404 344.099 7.502 344.099 10.022V14H341.417ZM351.845 14V0.877999H355.427L358.919 8.348H359.045L362.555 0.877999H366.101V14H363.347V8.384L363.527 4.712H363.401L358.991 13.802L354.581 4.712H354.437L354.617 8.402V14H351.845ZM367.188 0.877999H370.284L371.544 7.574L372.066 10.904H372.21L374.514 0.877999H378.06L380.382 10.94H380.508L381.012 7.61L382.254 0.877999H385.35L382.542 14H378.672L376.332 4.568H376.206L373.866 14H369.978L367.188 0.877999ZM390.849 9.068C390.849 10.028 390.753 10.97 390.561 11.894C390.381 12.818 390.093 13.694 389.697 14.522C389.313 15.362 388.815 16.136 388.203 16.844H386.025C386.565 16.1 387.015 15.302 387.375 14.45C387.747 13.61 388.029 12.734 388.221 11.822C388.413 10.898 388.509 9.974 388.509 9.05C388.509 8.102 388.413 7.166 388.221 6.242C388.029 5.318 387.747 4.424 387.375 3.56C387.015 2.696 386.559 1.892 386.007 1.148H388.203C388.815 1.868 389.313 2.654 389.697 3.506C390.093 4.358 390.381 5.252 390.561 6.188C390.753 7.124 390.849 8.084 390.849 9.068Z" fill="#001E0A"/>
<path d="M306.992 613H295.208V624.784H306.992V613Z" fill="#68C184"/>
<path d="M317.67 625V613.336H325.91V614.6H319.078V618.552H325.238V619.752H319.078V625H317.67ZM335.044 616.648V625H333.892L333.7 623.448H333.572C333.092 624.472 331.988 625.16 330.58 625.16C328.82 625.16 327.684 624.024 327.684 621.976V616.648H329.028V621.8C329.028 623.272 329.748 623.96 331.012 623.96C332.644 623.96 333.7 622.776 333.7 621.016V616.648H335.044ZM341.011 625.16C338.563 625.16 336.899 623.48 336.899 620.856C336.899 618.2 338.547 616.488 340.995 616.488C343.427 616.488 344.851 617.992 344.851 620.248C344.851 620.552 344.819 620.872 344.787 621.112H338.275C338.243 623 339.347 624.04 341.027 624.04C342.355 624.04 343.315 623.416 343.539 622.488H344.899C344.611 624.072 343.091 625.16 341.011 625.16ZM338.275 620.104H343.491C343.491 618.504 342.579 617.608 340.979 617.608C339.427 617.608 338.339 618.6 338.275 620.104ZM346.833 625V613.272H348.161V625H346.833Z" fill="#595959"/>
<path d="M190.784 613H179V624.784H190.784V613Z" fill="#D9D9D9"/>
<path d="M201.815 625V613.336H207.335C209.943 613.336 211.175 614.664 211.175 616.6C211.175 618.04 210.343 619.064 209.111 619.56V619.672C210.423 619.912 210.935 620.728 210.935 621.896V623.72C210.935 624.12 210.935 624.584 211.111 625H209.671C209.511 624.68 209.511 624.296 209.511 623.592V622.184C209.511 621.096 209.175 620.36 207.559 620.36H203.223V625H201.815ZM203.223 619.112H206.839C208.583 619.112 209.703 618.184 209.703 616.792C209.703 615.208 208.631 614.6 207.111 614.6H203.223V619.112ZM216.84 625.16C214.392 625.16 212.728 623.48 212.728 620.856C212.728 618.2 214.376 616.488 216.824 616.488C219.256 616.488 220.68 617.992 220.68 620.248C220.68 620.552 220.648 620.872 220.616 621.112H214.104C214.072 623 215.176 624.04 216.856 624.04C218.184 624.04 219.144 623.416 219.368 622.488H220.728C220.44 624.072 218.92 625.16 216.84 625.16ZM214.104 620.104H219.32C219.32 618.504 218.408 617.608 216.808 617.608C215.256 617.608 214.168 618.6 214.104 620.104ZM222.646 625V616.648H223.83L224.006 618.216H224.118C224.662 617.144 225.75 616.488 227.062 616.488C228.918 616.488 230.102 617.752 230.102 619.832V625H228.758V620.024C228.758 618.424 227.99 617.704 226.646 617.704C225.078 617.704 223.99 618.888 223.99 620.664V625H222.646ZM231.447 616.648H232.967V614.152L234.311 613.912V616.648H236.279V617.784H234.311V622.568C234.311 623.624 234.727 623.976 235.431 623.976C235.735 623.976 236.023 623.944 236.279 623.864V624.952C235.911 625.064 235.511 625.112 235.095 625.112C233.431 625.112 232.967 624.008 232.967 622.712V617.784H231.447V616.648ZM237.706 622.696C237.706 621.016 239.018 620.184 241.018 620.04L243.546 619.864V619.336C243.546 618.008 242.794 617.576 241.53 617.576C240.25 617.576 239.434 618.264 239.482 619.288H238.186C238.138 617.608 239.466 616.488 241.562 616.488C243.946 616.488 244.89 617.544 244.89 619.224V623.368C244.89 623.576 244.906 624.04 245.434 624.04C245.53 624.04 245.658 624.024 245.754 623.976V624.984C245.546 625.048 245.258 625.096 245.018 625.096C244.17 625.096 243.61 624.648 243.594 623.544H243.498C243.05 624.504 241.818 625.16 240.474 625.16C238.81 625.16 237.706 624.216 237.706 622.696ZM239.082 622.616C239.082 623.576 239.802 624.04 240.858 624.04C242.474 624.04 243.546 622.968 243.546 621.464V620.856L241.194 621.032C239.674 621.128 239.082 621.736 239.082 622.616ZM247.625 625V613.272H248.953V625H247.625Z" fill="#595959"/>
<path d="M93 54H525.642" stroke="#D9D9D9" stroke-width="1.68343" stroke-linejoin="round"/>
<path d="M93 176.89H525.642" stroke="#D9D9D9" stroke-width="1.68343" stroke-linejoin="round"/>
<path d="M93 299.781H525.642" stroke="#D9D9D9" stroke-width="1.68343" stroke-linejoin="round"/>
<path d="M93 422.671H525.642" stroke="#D9D9D9" stroke-width="1.68343" stroke-linejoin="round"/>
<path d="M93 545.562H527.326" stroke="#D9D9D9" stroke-width="1.68343" stroke-linecap="square" stroke-linejoin="round"/>
<path d="M8.16934 58.3427C7.58267 58.332 7.012 58.284 6.45734 58.1987C5.90267 58.1027 5.45467 57.9747 5.11334 57.8147V56.4547C5.476 56.6254 5.94 56.7747 6.50534 56.9027C7.07067 57.0307 7.62534 57.1 8.16934 57.1107V53.8787C7.64667 53.7294 7.188 53.5694 6.79334 53.3987C6.40934 53.2174 6.09467 53.0147 5.84934 52.7907C5.604 52.5667 5.41734 52.3107 5.28934 52.0227C5.172 51.724 5.11334 51.3827 5.11334 50.9987C5.11334 50.476 5.236 50.028 5.48134 49.6547C5.73734 49.2814 6.09467 48.988 6.55334 48.7747C7.012 48.5507 7.55067 48.4227 8.16934 48.3907V46.9827H9.19334V48.3747C9.75867 48.3854 10.2707 48.4494 10.7293 48.5667C11.1987 48.6734 11.6253 48.8067 12.0093 48.9667L11.5773 50.1507C11.236 50.012 10.8573 49.8947 10.4413 49.7987C10.036 49.692 9.62 49.6227 9.19334 49.5907V52.8067C9.89734 53.0094 10.484 53.228 10.9533 53.4627C11.4227 53.6867 11.7747 53.9694 12.0093 54.3107C12.2547 54.6414 12.3773 55.0734 12.3773 55.6067C12.3773 56.3534 12.1 56.9614 11.5453 57.4307C10.9907 57.8894 10.2067 58.172 9.19334 58.2787V60.0547H8.16934V58.3427ZM9.19334 57.0307C9.82267 56.9667 10.2813 56.8227 10.5693 56.5987C10.8573 56.364 11.0013 56.0654 11.0013 55.7027C11.0013 55.436 10.948 55.2174 10.8413 55.0467C10.7347 54.8654 10.548 54.7107 10.2813 54.5827C10.0253 54.4547 9.66267 54.332 9.19334 54.2147V57.0307ZM8.16934 49.6227C7.78534 49.644 7.47067 49.7134 7.22534 49.8307C6.98 49.9374 6.79334 50.0814 6.66534 50.2627C6.548 50.444 6.48934 50.652 6.48934 50.8867C6.48934 51.164 6.53734 51.404 6.63334 51.6067C6.74 51.7987 6.916 51.964 7.16134 52.1027C7.40667 52.2307 7.74267 52.348 8.16934 52.4547V49.6227ZM21.7256 54.6467H23.2296V55.8147H21.7256V59.1267H20.3816V55.8147H14.3976V54.6307L19.6296 47.5907H21.7256V54.6467ZM15.8216 54.6467H20.3816V48.4547L15.8216 54.6467ZM29.0816 59.2227C26.7456 59.2227 24.9376 57.3827 24.9376 53.3187C24.9376 49.2867 26.7296 47.4467 29.0816 47.4467C31.3856 47.4467 33.1936 49.2707 33.1936 53.3187C33.1936 57.3827 31.3856 59.2227 29.0816 59.2227ZM29.0496 58.0067C30.8896 58.0067 31.7696 56.2787 31.7696 53.3347C31.7696 50.2627 30.8416 48.6627 29.0656 48.6627C27.2256 48.6627 26.3616 50.3747 26.3616 53.3027C26.3616 56.3267 27.2416 58.0067 29.0496 58.0067ZM39.2566 59.2227C36.9206 59.2227 35.1126 57.3827 35.1126 53.3187C35.1126 49.2867 36.9046 47.4467 39.2566 47.4467C41.5606 47.4467 43.3686 49.2707 43.3686 53.3187C43.3686 57.3827 41.5606 59.2227 39.2566 59.2227ZM39.2246 58.0067C41.0646 58.0067 41.9446 56.2787 41.9446 53.3347C41.9446 50.2627 41.0166 48.6627 39.2406 48.6627C37.4006 48.6627 36.5366 50.3747 36.5366 53.3027C36.5366 56.3267 37.4166 58.0067 39.2246 58.0067ZM45.1436 61.3027V60.6307C46.1676 60.6307 46.2956 60.0387 46.2956 59.5267V59.1267H45.2876V57.2067H47.1116V59.5587C47.1116 60.6467 46.3276 61.3027 45.1436 61.3027ZM53.1222 59.2227C50.7862 59.2227 48.9782 57.3827 48.9782 53.3187C48.9782 49.2867 50.7702 47.4467 53.1222 47.4467C55.4262 47.4467 57.2342 49.2707 57.2342 53.3187C57.2342 57.3827 55.4262 59.2227 53.1222 59.2227ZM53.0902 58.0067C54.9302 58.0067 55.8102 56.2787 55.8102 53.3347C55.8102 50.2627 54.8822 48.6627 53.1062 48.6627C51.2662 48.6627 50.4022 50.3747 50.4022 53.3027C50.4022 56.3267 51.2822 58.0067 53.0902 58.0067ZM63.2972 59.2227C60.9612 59.2227 59.1532 57.3827 59.1532 53.3187C59.1532 49.2867 60.9452 47.4467 63.2972 47.4467C65.6012 47.4467 67.4092 49.2707 67.4092 53.3187C67.4092 57.3827 65.6012 59.2227 63.2972 59.2227ZM63.2652 58.0067C65.1052 58.0067 65.9852 56.2787 65.9852 53.3347C65.9852 50.2627 65.0572 48.6627 63.2812 48.6627C61.4412 48.6627 60.5772 50.3747 60.5772 53.3027C60.5772 56.3267 61.4572 58.0067 63.2652 58.0067ZM73.4722 59.2227C71.1362 59.2227 69.3282 57.3827 69.3282 53.3187C69.3282 49.2867 71.1202 47.4467 73.4722 47.4467C75.7762 47.4467 77.5842 49.2707 77.5842 53.3187C77.5842 57.3827 75.7762 59.2227 73.4722 59.2227ZM73.4402 58.0067C75.2802 58.0067 76.1602 56.2787 76.1602 53.3347C76.1602 50.2627 75.2322 48.6627 73.4562 48.6627C71.6162 48.6627 70.7522 50.3747 70.7522 53.3027C70.7522 56.3267 71.6322 58.0067 73.4402 58.0067Z" fill="#595959"/>
<path d="M9.16934 180.032C8.58267 180.021 8.012 179.973 7.45734 179.888C6.90267 179.792 6.45467 179.664 6.11334 179.504V178.144C6.476 178.315 6.94 178.464 7.50534 178.592C8.07067 178.72 8.62534 178.789 9.16934 178.8V175.568C8.64667 175.419 8.188 175.259 7.79334 175.088C7.40934 174.907 7.09467 174.704 6.84934 174.48C6.604 174.256 6.41734 174 6.28934 173.712C6.172 173.413 6.11334 173.072 6.11334 172.688C6.11334 172.165 6.236 171.717 6.48134 171.344C6.73734 170.971 7.09467 170.677 7.55334 170.464C8.012 170.24 8.55067 170.112 9.16934 170.08V168.672H10.1933V170.064C10.7587 170.075 11.2707 170.139 11.7293 170.256C12.1987 170.363 12.6253 170.496 13.0093 170.656L12.5773 171.84C12.236 171.701 11.8573 171.584 11.4413 171.488C11.036 171.381 10.62 171.312 10.1933 171.28V174.496C10.8973 174.699 11.484 174.917 11.9533 175.152C12.4227 175.376 12.7747 175.659 13.0093 176C13.2547 176.331 13.3773 176.763 13.3773 177.296C13.3773 178.043 13.1 178.651 12.5453 179.12C11.9907 179.579 11.2067 179.861 10.1933 179.968V181.744H9.16934V180.032ZM10.1933 178.72C10.8227 178.656 11.2813 178.512 11.5693 178.288C11.8573 178.053 12.0013 177.755 12.0013 177.392C12.0013 177.125 11.948 176.907 11.8413 176.736C11.7347 176.555 11.548 176.4 11.2813 176.272C11.0253 176.144 10.6627 176.021 10.1933 175.904V178.72ZM9.16934 171.312C8.78534 171.333 8.47067 171.403 8.22534 171.52C7.98 171.627 7.79334 171.771 7.66534 171.952C7.548 172.133 7.48934 172.341 7.48934 172.576C7.48934 172.853 7.53734 173.093 7.63334 173.296C7.74 173.488 7.916 173.653 8.16134 173.792C8.40667 173.92 8.74267 174.037 9.16934 174.144V171.312ZM19.4136 180.976C17.0296 180.976 15.5416 179.504 15.6216 177.312H17.0456C16.9816 178.992 18.0216 179.776 19.4296 179.776C20.9336 179.776 21.9416 178.896 21.9416 177.584C21.9416 176.24 20.9336 175.424 19.3176 175.424H18.5176V174.288H19.3016C20.9656 174.288 21.7816 173.376 21.7816 172.256C21.7816 170.992 20.7416 170.352 19.4776 170.352C18.0056 170.352 17.1416 171.216 17.1416 172.768H15.7176C15.6696 170.56 17.2696 169.136 19.4936 169.136C21.4776 169.136 23.2056 170.208 23.2056 172.176C23.2056 173.28 22.6296 174.24 21.3656 174.768V174.864C22.8216 175.344 23.3816 176.512 23.3816 177.616C23.3816 179.632 21.7336 180.976 19.4136 180.976ZM29.4253 180.912C27.0893 180.912 25.2813 179.072 25.2813 175.008C25.2813 170.976 27.0733 169.136 29.4253 169.136C31.7293 169.136 33.5373 170.96 33.5373 175.008C33.5373 179.072 31.7293 180.912 29.4253 180.912ZM29.3933 179.696C31.2333 179.696 32.1133 177.968 32.1133 175.024C32.1133 171.952 31.1853 170.352 29.4093 170.352C27.5693 170.352 26.7053 172.064 26.7053 174.992C26.7053 178.016 27.5853 179.696 29.3933 179.696ZM39.6003 180.912C37.2643 180.912 35.4563 179.072 35.4563 175.008C35.4563 170.976 37.2483 169.136 39.6003 169.136C41.9043 169.136 43.7123 170.96 43.7123 175.008C43.7123 179.072 41.9043 180.912 39.6003 180.912ZM39.5683 179.696C41.4083 179.696 42.2883 177.968 42.2883 175.024C42.2883 171.952 41.3603 170.352 39.5843 170.352C37.7443 170.352 36.8803 172.064 36.8803 174.992C36.8803 178.016 37.7603 179.696 39.5683 179.696ZM45.4873 182.992V182.32C46.5113 182.32 46.6393 181.728 46.6393 181.216V180.816H45.6313V178.896H47.4553V181.248C47.4553 182.336 46.6713 182.992 45.4873 182.992ZM53.466 180.912C51.13 180.912 49.322 179.072 49.322 175.008C49.322 170.976 51.114 169.136 53.466 169.136C55.77 169.136 57.578 170.96 57.578 175.008C57.578 179.072 55.77 180.912 53.466 180.912ZM53.434 179.696C55.274 179.696 56.154 177.968 56.154 175.024C56.154 171.952 55.226 170.352 53.45 170.352C51.61 170.352 50.746 172.064 50.746 174.992C50.746 178.016 51.626 179.696 53.434 179.696ZM63.641 180.912C61.305 180.912 59.497 179.072 59.497 175.008C59.497 170.976 61.289 169.136 63.641 169.136C65.945 169.136 67.753 170.96 67.753 175.008C67.753 179.072 65.945 180.912 63.641 180.912ZM63.609 179.696C65.449 179.696 66.329 177.968 66.329 175.024C66.329 171.952 65.401 170.352 63.625 170.352C61.785 170.352 60.921 172.064 60.921 174.992C60.921 178.016 61.801 179.696 63.609 179.696ZM73.816 180.912C71.48 180.912 69.672 179.072 69.672 175.008C69.672 170.976 71.464 169.136 73.816 169.136C76.12 169.136 77.928 170.96 77.928 175.008C77.928 179.072 76.12 180.912 73.816 180.912ZM73.784 179.696C75.624 179.696 76.504 177.968 76.504 175.024C76.504 171.952 75.576 170.352 73.8 170.352C71.96 170.352 71.096 172.064 71.096 174.992C71.096 178.016 71.976 179.696 73.784 179.696Z" fill="#595959"/>
<path d="M9.16934 301.721C8.58267 301.711 8.012 301.663 7.45734 301.577C6.90267 301.481 6.45467 301.353 6.11334 301.193V299.833C6.476 300.004 6.94 300.153 7.50534 300.281C8.07067 300.409 8.62534 300.479 9.16934 300.489V297.257C8.64667 297.108 8.188 296.948 7.79334 296.777C7.40934 296.596 7.09467 296.393 6.84934 296.169C6.604 295.945 6.41734 295.689 6.28934 295.401C6.172 295.103 6.11334 294.761 6.11334 294.377C6.11334 293.855 6.236 293.407 6.48134 293.033C6.73734 292.66 7.09467 292.367 7.55334 292.153C8.012 291.929 8.55067 291.801 9.16934 291.769V290.361H10.1933V291.753C10.7587 291.764 11.2707 291.828 11.7293 291.945C12.1987 292.052 12.6253 292.185 13.0093 292.345L12.5773 293.529C12.236 293.391 11.8573 293.273 11.4413 293.177C11.036 293.071 10.62 293.001 10.1933 292.969V296.185C10.8973 296.388 11.484 296.607 11.9533 296.841C12.4227 297.065 12.7747 297.348 13.0093 297.689C13.2547 298.02 13.3773 298.452 13.3773 298.985C13.3773 299.732 13.1 300.34 12.5453 300.809C11.9907 301.268 11.2067 301.551 10.1933 301.657V303.433H9.16934V301.721ZM10.1933 300.409C10.8227 300.345 11.2813 300.201 11.5693 299.977C11.8573 299.743 12.0013 299.444 12.0013 299.081C12.0013 298.815 11.948 298.596 11.8413 298.425C11.7347 298.244 11.548 298.089 11.2813 297.961C11.0253 297.833 10.6627 297.711 10.1933 297.593V300.409ZM9.16934 293.001C8.78534 293.023 8.47067 293.092 8.22534 293.209C7.98 293.316 7.79334 293.46 7.66534 293.641C7.548 293.823 7.48934 294.031 7.48934 294.265C7.48934 294.543 7.53734 294.783 7.63334 294.985C7.74 295.177 7.916 295.343 8.16134 295.481C8.40667 295.609 8.74267 295.727 9.16934 295.833V293.001ZM19.3816 301.289H23.3336V302.505H15.5896V302.105C15.5896 297.929 21.7656 297.241 21.7656 294.137C21.7656 292.793 20.8216 292.041 19.4616 292.041C17.9096 292.041 17.0136 292.969 17.0936 294.361H15.7496C15.6536 292.249 17.2536 290.825 19.5256 290.825C21.7016 290.825 23.1896 292.153 23.1896 294.073C23.1896 297.625 17.3176 298.809 17.0616 301.465C17.7496 301.337 18.6136 301.289 19.3816 301.289ZM29.2535 302.601C26.9175 302.601 25.1095 300.761 25.1095 296.697C25.1095 292.665 26.9015 290.825 29.2535 290.825C31.5575 290.825 33.3655 292.649 33.3655 296.697C33.3655 300.761 31.5575 302.601 29.2535 302.601ZM29.2215 301.385C31.0615 301.385 31.9415 299.657 31.9415 296.713C31.9415 293.641 31.0135 292.041 29.2375 292.041C27.3975 292.041 26.5335 293.753 26.5335 296.681C26.5335 299.705 27.4135 301.385 29.2215 301.385ZM39.4285 302.601C37.0925 302.601 35.2845 300.761 35.2845 296.697C35.2845 292.665 37.0765 290.825 39.4285 290.825C41.7325 290.825 43.5405 292.649 43.5405 296.697C43.5405 300.761 41.7325 302.601 39.4285 302.601ZM39.3965 301.385C41.2365 301.385 42.1165 299.657 42.1165 296.713C42.1165 293.641 41.1885 292.041 39.4125 292.041C37.5725 292.041 36.7085 293.753 36.7085 296.681C36.7085 299.705 37.5885 301.385 39.3965 301.385ZM45.3155 304.681V304.009C46.3395 304.009 46.4675 303.417 46.4675 302.905V302.505H45.4595V300.585H47.2835V302.937C47.2835 304.025 46.4995 304.681 45.3155 304.681ZM53.2941 302.601C50.9581 302.601 49.1501 300.761 49.1501 296.697C49.1501 292.665 50.9421 290.825 53.2941 290.825C55.5981 290.825 57.4061 292.649 57.4061 296.697C57.4061 300.761 55.5981 302.601 53.2941 302.601ZM53.2621 301.385C55.1021 301.385 55.9821 299.657 55.9821 296.713C55.9821 293.641 55.0541 292.041 53.2781 292.041C51.4381 292.041 50.5741 293.753 50.5741 296.681C50.5741 299.705 51.4541 301.385 53.2621 301.385ZM63.4691 302.601C61.1331 302.601 59.3251 300.761 59.3251 296.697C59.3251 292.665 61.1171 290.825 63.4691 290.825C65.7731 290.825 67.5811 292.649 67.5811 296.697C67.5811 300.761 65.7731 302.601 63.4691 302.601ZM63.4371 301.385C65.2771 301.385 66.1571 299.657 66.1571 296.713C66.1571 293.641 65.2291 292.041 63.4531 292.041C61.6131 292.041 60.7491 293.753 60.7491 296.681C60.7491 299.705 61.6291 301.385 63.4371 301.385ZM73.6441 302.601C71.3081 302.601 69.5001 300.761 69.5001 296.697C69.5001 292.665 71.2921 290.825 73.6441 290.825C75.9481 290.825 77.7561 292.649 77.7561 296.697C77.7561 300.761 75.9481 302.601 73.6441 302.601ZM73.6121 301.385C75.4521 301.385 76.3321 299.657 76.3321 296.713C76.3321 293.641 75.4041 292.041 73.6281 292.041C71.7881 292.041 70.9241 293.753 70.9241 296.681C70.9241 299.705 71.8041 301.385 73.6121 301.385Z" fill="#595959"/>
<path d="M12.1693 423.411C11.5827 423.4 11.012 423.352 10.4573 423.267C9.90267 423.171 9.45467 423.043 9.11334 422.883V421.523C9.476 421.693 9.94 421.843 10.5053 421.971C11.0707 422.099 11.6253 422.168 12.1693 422.179V418.947C11.6467 418.797 11.188 418.637 10.7933 418.467C10.4093 418.285 10.0947 418.083 9.84934 417.859C9.604 417.635 9.41734 417.379 9.28934 417.091C9.172 416.792 9.11334 416.451 9.11334 416.067C9.11334 415.544 9.236 415.096 9.48134 414.723C9.73734 414.349 10.0947 414.056 10.5533 413.843C11.012 413.619 11.5507 413.491 12.1693 413.459V412.051H13.1933V413.443C13.7587 413.453 14.2707 413.517 14.7293 413.635C15.1987 413.741 15.6253 413.875 16.0093 414.035L15.5773 415.219C15.236 415.08 14.8573 414.963 14.4413 414.867C14.036 414.76 13.62 414.691 13.1933 414.659V417.875C13.8973 418.077 14.484 418.296 14.9533 418.531C15.4227 418.755 15.7747 419.037 16.0093 419.379C16.2547 419.709 16.3773 420.141 16.3773 420.675C16.3773 421.421 16.1 422.029 15.5453 422.499C14.9907 422.957 14.2067 423.24 13.1933 423.347V425.123H12.1693V423.411ZM13.1933 422.099C13.8227 422.035 14.2813 421.891 14.5693 421.667C14.8573 421.432 15.0013 421.133 15.0013 420.771C15.0013 420.504 14.948 420.285 14.8413 420.115C14.7347 419.933 14.548 419.779 14.2813 419.651C14.0253 419.523 13.6627 419.4 13.1933 419.283V422.099ZM12.1693 414.691C11.7853 414.712 11.4707 414.781 11.2253 414.899C10.98 415.005 10.7933 415.149 10.6653 415.331C10.548 415.512 10.4893 415.72 10.4893 415.955C10.4893 416.232 10.5373 416.472 10.6333 416.675C10.74 416.867 10.916 417.032 11.1613 417.171C11.4067 417.299 11.7427 417.416 12.1693 417.523V414.691ZM18.4936 415.683V414.659H18.8616C20.4936 414.659 21.5656 413.923 21.7576 412.659H23.0056V424.195H21.6616V415.683H18.4936ZM29.691 424.291C27.355 424.291 25.547 422.451 25.547 418.387C25.547 414.355 27.339 412.515 29.691 412.515C31.995 412.515 33.803 414.339 33.803 418.387C33.803 422.451 31.995 424.291 29.691 424.291ZM29.659 423.075C31.499 423.075 32.379 421.347 32.379 418.403C32.379 415.331 31.451 413.731 29.675 413.731C27.835 413.731 26.971 415.443 26.971 418.371C26.971 421.395 27.851 423.075 29.659 423.075ZM39.866 424.291C37.53 424.291 35.722 422.451 35.722 418.387C35.722 414.355 37.514 412.515 39.866 412.515C42.17 412.515 43.978 414.339 43.978 418.387C43.978 422.451 42.17 424.291 39.866 424.291ZM39.834 423.075C41.674 423.075 42.554 421.347 42.554 418.403C42.554 415.331 41.626 413.731 39.85 413.731C38.01 413.731 37.146 415.443 37.146 418.371C37.146 421.395 38.026 423.075 39.834 423.075ZM45.753 426.371V425.699C46.777 425.699 46.905 425.107 46.905 424.595V424.195H45.897V422.275H47.721V424.627C47.721 425.715 46.937 426.371 45.753 426.371ZM53.7316 424.291C51.3956 424.291 49.5876 422.451 49.5876 418.387C49.5876 414.355 51.3796 412.515 53.7316 412.515C56.0356 412.515 57.8436 414.339 57.8436 418.387C57.8436 422.451 56.0356 424.291 53.7316 424.291ZM53.6996 423.075C55.5396 423.075 56.4196 421.347 56.4196 418.403C56.4196 415.331 55.4916 413.731 53.7156 413.731C51.8756 413.731 51.0116 415.443 51.0116 418.371C51.0116 421.395 51.8916 423.075 53.6996 423.075ZM63.9066 424.291C61.5706 424.291 59.7626 422.451 59.7626 418.387C59.7626 414.355 61.5546 412.515 63.9066 412.515C66.2106 412.515 68.0186 414.339 68.0186 418.387C68.0186 422.451 66.2106 424.291 63.9066 424.291ZM63.8746 423.075C65.7146 423.075 66.5946 421.347 66.5946 418.403C66.5946 415.331 65.6666 413.731 63.8906 413.731C62.0506 413.731 61.1866 415.443 61.1866 418.371C61.1866 421.395 62.0666 423.075 63.8746 423.075ZM74.0816 424.291C71.7456 424.291 69.9376 422.451 69.9376 418.387C69.9376 414.355 71.7296 412.515 74.0816 412.515C76.3856 412.515 78.1936 414.339 78.1936 418.387C78.1936 422.451 76.3856 424.291 74.0816 424.291ZM74.0496 423.075C75.8896 423.075 76.7696 421.347 76.7696 418.403C76.7696 415.331 75.8416 413.731 74.0656 413.731C72.2256 413.731 71.3616 415.443 71.3616 418.371C71.3616 421.395 72.2416 423.075 74.0496 423.075Z" fill="#595959"/>
<path d="M68.0568 545.1C67.4702 545.089 66.8995 545.041 66.3448 544.956C65.7902 544.86 65.3422 544.732 65.0008 544.572V543.212C65.3635 543.382 65.8275 543.532 66.3928 543.66C66.9582 543.788 67.5128 543.857 68.0568 543.868V540.636C67.5342 540.486 67.0755 540.326 66.6808 540.156C66.2968 539.974 65.9822 539.772 65.7368 539.548C65.4915 539.324 65.3048 539.068 65.1768 538.78C65.0595 538.481 65.0008 538.14 65.0008 537.756C65.0008 537.233 65.1235 536.785 65.3688 536.412C65.6248 536.038 65.9822 535.745 66.4408 535.532C66.8995 535.308 67.4382 535.18 68.0568 535.148V533.74H69.0808V535.132C69.6462 535.142 70.1582 535.206 70.6168 535.324C71.0862 535.43 71.5128 535.564 71.8968 535.724L71.4648 536.908C71.1235 536.769 70.7448 536.652 70.3288 536.556C69.9235 536.449 69.5075 536.38 69.0808 536.348V539.564C69.7848 539.766 70.3715 539.985 70.8408 540.22C71.3102 540.444 71.6622 540.726 71.8968 541.068C72.1422 541.398 72.2648 541.83 72.2648 542.364C72.2648 543.11 71.9875 543.718 71.4328 544.188C70.8782 544.646 70.0942 544.929 69.0808 545.036V546.812H68.0568V545.1ZM69.0808 543.788C69.7102 543.724 70.1688 543.58 70.4568 543.356C70.7448 543.121 70.8888 542.822 70.8888 542.46C70.8888 542.193 70.8355 541.974 70.7288 541.804C70.6222 541.622 70.4355 541.468 70.1688 541.34C69.9128 541.212 69.5502 541.089 69.0808 540.972V543.788ZM68.0568 536.38C67.6728 536.401 67.3582 536.47 67.1128 536.588C66.8675 536.694 66.6808 536.838 66.5528 537.02C66.4355 537.201 66.3768 537.409 66.3768 537.644C66.3768 537.921 66.4248 538.161 66.5208 538.364C66.6275 538.556 66.8035 538.721 67.0488 538.86C67.2942 538.988 67.6302 539.105 68.0568 539.212V536.38ZM74.6051 542.22V540.972H78.4771V542.22H74.6051Z" fill="#595959"/>
<path d="M459.88 565.839V554.175H461.288V564.559H467.144V565.839H459.88ZM474.253 554.175C476.797 554.175 478.189 555.647 478.189 557.871C478.189 560.239 476.669 561.599 474.205 561.583L470.541 561.567V565.839H469.133V554.175H474.253ZM474.093 560.319C475.981 560.319 476.701 559.327 476.701 557.871C476.701 556.143 475.645 555.487 474.093 555.487H470.541V560.319H474.093Z" fill="#595959"/>
<path d="M489.769 124.453H446V440.938H489.769V124.453Z" fill="#68C184"/>
<path d="M489.769 440.938H446V545.311H489.769V440.938Z" fill="#D9D9D9"/>
<path d="M349.88 565.839V554.175H351.752L358.552 564.079H358.616L358.52 560.527V554.175H359.912V565.839H358.04L351.272 555.935H351.192L351.288 559.343V565.839H349.88ZM367.229 559.679H373.485V565.839H372.317L372.173 563.791H372.061C371.309 565.103 369.517 565.999 367.581 565.999C364.061 565.999 361.981 563.631 361.981 560.095C361.981 556.415 364.317 554.031 368.013 554.031C370.925 554.031 373.037 555.503 373.357 557.727H371.901C371.517 556.175 369.981 555.311 367.949 555.311C365.053 555.311 363.469 557.183 363.469 560.143C363.469 563.263 365.213 564.751 367.645 564.751C370.237 564.751 371.885 563.087 371.981 560.879H367.229V559.679Z" fill="#595959"/>
<path d="M382.769 421.453H339V463.539H382.769V421.453Z" fill="#68C184"/>
<path d="M382.769 463.539H339V546.027H382.769V463.539Z" fill="#D9D9D9"/>
<path d="M246.376 562.015C246.04 564.447 243.928 565.999 241.096 565.999C237.672 565.999 235.384 563.583 235.384 559.999C235.384 556.447 237.672 554.031 241.096 554.031C243.912 554.031 245.976 555.551 246.376 557.967H244.936C244.52 556.335 243.064 555.311 241.096 555.311C238.52 555.311 236.872 557.167 236.872 560.015C236.872 562.879 238.536 564.719 241.08 564.719C243.224 564.719 244.568 563.647 244.936 562.015H246.376ZM248.493 565.839V554.175H250.365L257.165 564.079H257.229L257.133 560.527V554.175H258.525V565.839H256.653L249.885 555.935H249.805L249.901 559.343V565.839H248.493ZM265.842 559.679H272.098V565.839H270.93L270.786 563.791H270.674C269.922 565.103 268.13 565.999 266.194 565.999C262.674 565.999 260.594 563.631 260.594 560.095C260.594 556.415 262.93 554.031 266.626 554.031C269.538 554.031 271.65 555.503 271.97 557.727H270.514C270.13 556.175 268.594 555.311 266.562 555.311C263.666 555.311 262.082 557.183 262.082 560.143C262.082 563.263 263.826 564.751 266.258 564.751C268.85 564.751 270.498 563.087 270.594 560.879H265.842V559.679Z" fill="#595959"/>
<path d="M276.086 232.453H234V463.083H276.086V232.453Z" fill="#68C184"/>
<path d="M276.086 463.083H234V545.571H276.086V463.083Z" fill="#D9D9D9"/>
<path d="M126.88 564.156V552.492H131.696C135.168 552.492 137.12 554.86 137.12 558.332C137.12 561.804 135.152 564.156 131.696 564.156H126.88ZM128.288 562.86H131.632C134.144 562.86 135.632 561.132 135.632 558.316C135.632 555.34 134 553.788 131.632 553.788H128.288V562.86ZM139.068 554.396V552.428H140.396V554.396H139.068ZM139.068 564.156V555.804H140.396V564.156H139.068ZM146.409 564.316C143.961 564.316 142.297 562.636 142.297 560.012C142.297 557.356 143.945 555.644 146.393 555.644C148.825 555.644 150.249 557.148 150.249 559.404C150.249 559.708 150.217 560.028 150.185 560.268H143.673C143.641 562.156 144.745 563.196 146.425 563.196C147.753 563.196 148.713 562.572 148.937 561.644H150.297C150.009 563.228 148.489 564.316 146.409 564.316ZM143.673 559.26H148.889C148.889 557.66 147.977 556.764 146.377 556.764C144.825 556.764 143.737 557.756 143.673 559.26ZM153.158 561.628C153.174 562.62 154.022 563.26 155.398 563.26C156.678 563.26 157.446 562.716 157.446 561.836C157.446 560.94 156.662 560.764 156.246 560.684L154.342 560.332C152.646 560.028 152.038 559.164 152.038 558.14C152.038 556.556 153.35 555.644 155.302 555.644C157.398 555.644 158.598 556.684 158.63 558.188H157.334C157.286 557.164 156.518 556.7 155.318 556.7C154.07 556.7 153.414 557.212 153.414 557.996C153.414 558.972 154.374 559.132 154.838 559.212L156.582 559.5C158.262 559.788 158.87 560.7 158.87 561.836C158.87 563.34 157.478 564.316 155.414 564.316C153.206 564.316 151.862 563.228 151.862 561.628H153.158ZM164.696 564.316C162.248 564.316 160.584 562.636 160.584 560.012C160.584 557.356 162.232 555.644 164.68 555.644C167.112 555.644 168.536 557.148 168.536 559.404C168.536 559.708 168.504 560.028 168.472 560.268H161.96C161.928 562.156 163.032 563.196 164.712 563.196C166.04 563.196 167 562.572 167.224 561.644H168.584C168.296 563.228 166.776 564.316 164.696 564.316ZM161.96 559.26H167.176C167.176 557.66 166.264 556.764 164.664 556.764C163.112 556.764 162.024 557.756 161.96 559.26ZM170.518 564.156V552.428H171.846V564.156H170.518Z" fill="#595959"/>
<path d="M170.769 71.4531H127V495.678H170.769V71.4531Z" fill="#68C184"/>
<path d="M170.769 495.677H127V546.18H170.769V495.677Z" fill="#D9D9D9"/>
</svg>
