<svg width="369" height="67" viewBox="0 0 369 67" fill="none" xmlns="http://www.w3.org/2000/svg">
<g clip-path="url(#clip0_6_91)">
<path fill-rule="evenodd" clip-rule="evenodd" d="M204.47 48.42C200.18 48.42 196.87 47.53 194.55 45.76C192.23 43.99 190.98 41.43 190.8 38.08H197.28C197.34 39.65 197.95 40.85 199.1 41.7C200.25 42.54 202.01 42.96 204.38 42.96C206.13 42.96 207.52 42.65 208.57 42.03C209.62 41.41 210.15 40.52 210.15 39.37C210.15 38.51 209.84 37.79 209.22 37.22C208.6 36.64 207.83 36.18 206.91 35.84C205.99 35.5 204.71 35.12 203.05 34.71C200.77 34.12 198.89 33.52 197.41 32.91C195.93 32.3 194.67 31.38 193.64 30.14C192.6 28.9 192.09 27.27 192.09 25.26C192.09 23.49 192.58 21.91 193.55 20.53C194.53 19.15 195.9 18.09 197.68 17.34C199.46 16.59 201.53 16.21 203.89 16.21C207.59 16.21 210.52 17.02 212.68 18.65C214.84 20.28 216.04 22.61 216.27 25.66H209.79C209.7 24.33 209.19 23.33 208.26 22.66C207.33 21.99 205.92 21.66 204.02 21.66C202.3 21.66 200.96 21.96 199.98 22.57C199 23.18 198.52 24.01 198.52 25.08C198.52 25.94 198.82 26.66 199.43 27.23C200.04 27.81 200.81 28.26 201.74 28.58C202.67 28.91 203.95 29.28 205.58 29.69C207.89 30.28 209.77 30.88 211.24 31.49C212.7 32.1 213.96 33.02 215.01 34.26C216.06 35.5 216.59 37.14 216.59 39.19C216.59 41.02 216.08 42.64 215.06 44.05C214.04 45.46 212.61 46.53 210.78 47.29C208.95 48.04 206.85 48.42 204.48 48.42H204.47ZM55.42 47.82V16.78H67.84C70.24 16.78 72.34 17.23 74.16 18.13C75.98 19.03 77.39 20.3 78.4 21.92C79.41 23.55 79.91 25.41 79.91 27.51C79.91 29.61 79.41 31.47 78.4 33.1C77.39 34.73 75.98 35.99 74.16 36.89C72.34 37.79 70.23 38.24 67.84 38.24H61.63V47.82H55.42ZM67.66 32.52H61.54V22.44H67.66C69.55 22.44 71 22.88 72.01 23.77C73.02 24.66 73.52 25.9 73.52 27.5C73.52 28.57 73.29 29.48 72.83 30.23C72.37 30.99 71.7 31.56 70.83 31.94C69.96 32.33 68.9 32.52 67.66 32.52ZM93.49 48.33C91.18 48.33 89.11 47.82 87.28 46.8C85.45 45.78 84 44.37 82.95 42.56C81.9 40.76 81.37 38.71 81.37 36.44C81.37 34.17 81.89 32.12 82.92 30.32C83.96 28.52 85.4 27.1 87.25 26.08C89.1 25.06 91.18 24.55 93.48 24.55C95.78 24.55 97.82 25.06 99.67 26.08C101.52 27.1 102.96 28.51 104 30.32C105.04 32.13 105.55 34.17 105.55 36.44C105.55 38.71 105.03 40.76 104 42.56C102.96 44.36 101.52 45.78 99.67 46.8C97.82 47.82 95.76 48.33 93.48 48.33H93.49ZM93.49 43.18C94.73 43.18 95.82 42.91 96.75 42.36C97.68 41.81 98.4 41.04 98.9 40.03C99.4 39.02 99.65 37.83 99.65 36.44C99.65 35.05 99.4 33.89 98.9 32.87C98.4 31.85 97.68 31.07 96.75 30.52C95.82 29.97 94.73 29.7 93.49 29.7C92.25 29.7 91.12 29.97 90.18 30.52C89.25 31.07 88.53 31.85 88.03 32.87C87.53 33.89 87.28 35.08 87.28 36.44C87.28 37.8 87.53 39.03 88.03 40.03C88.53 41.04 89.25 41.81 90.18 42.36C91.11 42.91 92.21 43.18 93.49 43.18ZM107.78 25.03L112.31 47.84H121.65L124.76 30.36H126L129.06 47.84H138.42L142.95 25.03H137.23L134.17 42.51H132.75L129.6 25.03H121.26L118.11 42.51H116.65L113.59 25.03H107.78ZM157.35 48.33C155.1 48.33 153.05 47.81 151.2 46.75C149.35 45.7 147.89 44.27 146.81 42.47C145.73 40.67 145.19 38.65 145.19 36.44C145.19 34.23 145.73 32.2 146.81 30.38C147.89 28.56 149.35 27.13 151.2 26.1C153.05 25.06 155.1 24.55 157.35 24.55C159.6 24.55 161.62 25.05 163.43 26.06C165.23 27.07 166.67 28.51 167.73 30.39C168.79 32.27 169.33 34.45 169.33 36.93V38.22H151.196C151.325 38.9074 151.533 39.5446 151.82 40.13C152.34 41.19 153.08 42.01 154.04 42.57C155 43.13 156.12 43.41 157.39 43.41C158.78 43.41 159.92 43.14 160.81 42.61C161.7 42.08 162.41 41.35 162.94 40.44H168.84C168.4 41.89 167.65 43.21 166.6 44.41C165.55 45.61 164.23 46.56 162.65 47.27C161.07 47.98 159.3 48.33 157.35 48.33ZM151.82 32.79C151.611 33.2125 151.444 33.6625 151.319 34.14H163.433C163.262 33.4875 163.01 32.88 162.67 32.32C162.14 31.43 161.42 30.74 160.52 30.23C159.62 29.73 158.57 29.48 157.39 29.48C156.12 29.48 155 29.77 154.04 30.35C153.08 30.93 152.34 31.74 151.82 32.79ZM173.81 25.03V47.84L173.8 47.85H179.52V36C179.52 34.2 180.05 32.77 181.1 31.72C182.15 30.67 183.53 30.14 185.25 30.14H188.58V24.77H185.7C184.13 24.77 182.82 25.12 181.75 25.83C180.68 26.54 179.91 27.41 179.44 28.45H179.22V25.03H173.81ZM218.23 25.21V30.05H223.02V47.83H235.58V42.82H228.7V30.05H234.34V25.21H228.7V19.44H223.02V25.21H218.23ZM239.7 47.84V25.03H245.11V28.45H245.33C245.8 27.41 246.57 26.54 247.64 25.83C248.71 25.12 250.02 24.77 251.59 24.77H254.47V30.14H251.14C249.42 30.14 248.04 30.67 246.99 31.72C245.94 32.77 245.41 34.2 245.41 36V47.85H239.69L239.7 47.84ZM261.6 46.75C263.45 47.81 265.5 48.33 267.75 48.33C269.7 48.33 271.47 47.98 273.05 47.27C274.63 46.56 275.95 45.61 277 44.41C278.05 43.21 278.8 41.89 279.24 40.44H273.34C272.81 41.35 272.1 42.08 271.21 42.61C270.32 43.14 269.18 43.41 267.79 43.41C266.52 43.41 265.4 43.13 264.44 42.57C263.48 42.01 262.74 41.19 262.22 40.13C261.933 39.5446 261.725 38.9074 261.596 38.22H279.73V36.93C279.73 34.45 279.19 32.27 278.13 30.39C277.07 28.51 275.63 27.07 273.83 26.06C272.02 25.05 270 24.55 267.75 24.55C265.5 24.55 263.45 25.06 261.6 26.1C259.75 27.13 258.29 28.56 257.21 30.38C256.13 32.2 255.59 34.23 255.59 36.44C255.59 38.65 256.13 40.67 257.21 42.47C258.29 44.27 259.75 45.7 261.6 46.75ZM261.719 34.14C261.844 33.6625 262.011 33.2125 262.22 32.79C262.74 31.74 263.48 30.93 264.44 30.35C265.4 29.77 266.52 29.48 267.79 29.48C268.97 29.48 270.02 29.73 270.92 30.23C271.82 30.74 272.54 31.43 273.07 32.32C273.41 32.88 273.662 33.4875 273.833 34.14H261.719ZM293.35 48.33C291.46 48.33 289.71 47.84 288.11 46.87C286.51 45.89 285.24 44.5 284.29 42.7C283.34 40.9 282.87 38.81 282.87 36.44C282.87 34.07 283.34 32.02 284.29 30.21C285.24 28.39 286.51 26.99 288.11 26.02C289.71 25.04 291.45 24.56 293.35 24.56C295.04 24.56 296.54 24.91 297.85 25.62C299.17 26.33 300.16 27.23 300.85 28.33H301.07V25.05H306.44V47.86H301.07V44.62H300.85C300.17 45.68 299.17 46.57 297.85 47.28C296.53 47.99 295.03 48.34 293.35 48.34V48.33ZM294.86 43.32C296.01 43.32 297.03 43.05 297.92 42.5C298.81 41.95 299.5 41.17 300.01 40.15C300.51 39.13 300.76 37.89 300.76 36.44C300.76 34.99 300.51 33.79 300.01 32.76C299.51 31.72 298.81 30.94 297.92 30.41C297.03 29.88 296.01 29.61 294.86 29.61C293.65 29.61 292.58 29.88 291.66 30.41C290.74 30.94 290.03 31.73 289.53 32.76C289.03 33.8 288.78 35.02 288.78 36.44C288.78 37.86 289.03 39.12 289.53 40.15C290.03 41.17 290.74 41.95 291.66 42.5C292.58 43.05 293.64 43.32 294.86 43.32ZM312.21 25.03V47.84L312.22 47.87H317.94V35.53C317.94 33.73 318.41 32.31 319.34 31.27C320.27 30.24 321.49 29.72 323 29.72C324.36 29.72 325.42 30.17 326.17 31.07C326.92 31.97 327.3 33.26 327.3 34.95V47.86H333.02V35.52C333.02 33.72 333.49 32.3 334.42 31.26C335.35 30.23 336.57 29.71 338.08 29.71C339.44 29.71 340.5 30.16 341.25 31.06C342 31.96 342.38 33.25 342.38 34.94V47.85H348.1V34.09C348.1 32.08 347.76 30.36 347.08 28.94C346.4 27.52 345.43 26.43 344.17 25.68C342.91 24.93 341.39 24.55 339.71 24.55C338.03 24.55 336.53 24.95 335.21 25.75C333.89 26.55 332.82 27.56 331.99 28.77H331.77C331.21 27.55 330.32 26.55 329.11 25.75C327.9 24.95 326.45 24.55 324.76 24.55C323.25 24.55 321.87 24.93 320.61 25.68C319.36 26.43 318.43 27.32 317.84 28.36H317.62V25.03H312.21Z" fill="#001E0A"/>
<path fill-rule="evenodd" clip-rule="evenodd" d="M20.86 8.45001C18.19 8.45001 15.74 19.52 13.95 33.03H27.77C25.94 19.32 23.53 8.45001 20.86 8.45001ZM34.69 57.61C37.36 57.61 39.81 46.54 41.6 33.03H27.78C29.61 46.74 32.02 57.61 34.69 57.61Z" fill="#68C184"/>
</g>
<defs>
<clipPath id="clip0_6_91">
<rect width="368.71" height="66.96" fill="white"/>
</clipPath>
</defs>
</svg>
