<svg width="72" height="72" viewBox="0 0 72 72" fill="none" xmlns="http://www.w3.org/2000/svg">
<g clip-path="url(#clip0_466_1728)">
<path d="M53.3808 37.3145V45.7162C53.3808 49.9483 49.9499 53.3793 45.717 53.3793H37.3152V55.9336H45.717C49.9491 55.9336 53.3801 59.3645 53.3801 63.5974V71.9992H55.9344V63.5974C55.9344 59.3653 59.3653 55.9344 63.5982 55.9344H72V53.38H63.5982C59.3661 53.38 55.9352 49.9491 55.9352 45.7162V37.3145H53.3808Z" fill="#001E0A"/>
<path d="M34.6109 18.6328V27.0346C34.6109 31.2667 31.1799 34.6976 26.9471 34.6976H18.5453V37.252H26.9471C31.1792 37.252 34.6101 40.6829 34.6101 44.9158V53.3176H37.1645V44.9158C37.1645 40.6837 40.5954 37.2527 44.8283 37.2527H53.23V34.6984H44.8283C40.5961 34.6984 37.1652 31.2675 37.1652 27.0346V18.6328H34.6109Z" fill="#68C184"/>
<path d="M53.3808 0V8.40178C53.3808 12.6339 49.9499 16.0648 45.717 16.0648H37.3152V18.6192H45.717C49.9491 18.6192 53.3801 22.0501 53.3801 26.283V34.6847H55.9344V26.283C55.9344 22.0509 59.3653 18.6199 63.5982 18.6199H72V16.0656H63.5982C59.3661 16.0656 55.9352 12.6347 55.9352 8.40178V0H53.3808Z" fill="#001E0A"/>
<path d="M16.0656 37.3145V45.7162C16.0656 49.9483 12.6347 53.3793 8.40178 53.3793H0V55.9336H8.40178C12.6339 55.9336 16.0648 59.3645 16.0648 63.5974V71.9992H18.6192V63.5974C18.6192 59.3653 22.0501 55.9344 26.283 55.9344H34.6847V53.38H26.283C22.0509 53.38 18.6199 49.9491 18.6199 45.7162V37.3145H16.0656Z" fill="#001E0A"/>
<path d="M16.0656 0V8.40178C16.0656 12.6339 12.6347 16.0648 8.40178 16.0648H0V18.6199H8.40178C12.6339 18.6199 16.0648 22.0509 16.0648 26.2837V34.6855H18.6192V26.2837C18.6192 22.0516 22.0501 18.6207 26.283 18.6207H34.6847V16.0663H26.283C22.0509 16.0663 18.6199 12.6354 18.6199 8.40254V0H16.0656Z" fill="#001E0A"/>
<path d="M64.8609 65.244V62.6897H62.3066V65.244H64.8609Z" fill="#001E0A"/>
<path d="M64.861 46.6241V44.0697H62.3066V46.6241H64.861Z" fill="#001E0A"/>
<path d="M46.241 65.244V62.6897H43.6866V65.244H46.241Z" fill="#001E0A"/>
<path d="M46.241 46.624V44.0697H43.6866V46.624H46.241Z" fill="#001E0A"/>
<path d="M64.7985 27.9424V25.3881H62.2441V27.9424H64.7985Z" fill="#001E0A"/>
<path d="M64.7985 9.32254V6.76819H62.2441V9.32254H64.7985Z" fill="#001E0A"/>
<path d="M46.1785 27.9433V25.3889H43.6242V27.9433H46.1785Z" fill="#001E0A"/>
<path d="M46.1793 9.32327V6.76892H43.625V9.32327H46.1793Z" fill="#001E0A"/>
<path d="M28.0902 65.2448V62.6904H25.5359V65.2448H28.0902Z" fill="#001E0A"/>
<path d="M28.0902 46.6248V44.0704H25.5359V46.6248H28.0902Z" fill="#001E0A"/>
<path d="M9.47028 65.2448V62.6904H6.91593V65.2448H9.47028Z" fill="#001E0A"/>
<path d="M9.47028 46.6248V44.0704H6.91593V46.6248H9.47028Z" fill="#001E0A"/>
<path d="M28.0285 27.9433V25.3889H25.4742V27.9433H28.0285Z" fill="#001E0A"/>
<path d="M28.0285 9.32327V6.76892H25.4742V9.32327H28.0285Z" fill="#001E0A"/>
<path d="M9.40857 27.9433V25.3889H6.85422V27.9433H9.40857Z" fill="#001E0A"/>
<path d="M9.40857 9.32327V6.76892H6.85422V9.32327H9.40857Z" fill="#001E0A"/>
</g>
<defs>
<clipPath id="clip0_466_1728">
<rect width="72" height="72" fill="white"/>
</clipPath>
</defs>
</svg>
