<svg width="72" height="73" viewBox="0 0 72 73" fill="none" xmlns="http://www.w3.org/2000/svg">
<g clip-path="url(#clip0_466_1768)">
<path d="M53.3808 18.5986V27.0004C53.3808 31.2325 49.9499 34.6635 45.717 34.6635H37.3152V37.2178H45.717C49.9491 37.2178 53.3801 40.6487 53.3801 44.8816V53.2834H55.9344V44.8816C55.9344 40.6495 59.3653 37.2186 63.5982 37.2186H72V34.6642H63.5982C59.3661 34.6642 55.9352 31.2333 55.9352 27.0004V18.5986H53.3808Z" fill="#68C184"/>
<path d="M16.0656 18.5986V27.0004C16.0656 31.2325 12.6347 34.6635 8.40178 34.6635H0V37.2178H8.40178C12.6339 37.2178 16.0648 40.6487 16.0648 44.8816V53.2834H18.6192V44.8816C18.6192 40.6495 22.0501 37.2186 26.283 37.2186H34.6847V34.6642H26.283C22.0509 34.6642 18.6199 31.2333 18.6199 27.0004V18.5986H16.0656Z" fill="#68C184"/>
<path d="M34.7541 37.5536V45.9554C34.7541 50.1875 31.3231 53.6184 27.0903 53.6184H18.6885V56.1728H27.0903C31.3224 56.1728 34.7533 59.6037 34.7533 63.8366V72.2383H37.3076V63.8366C37.3076 59.6044 40.7386 56.1735 44.9714 56.1735H53.3732V53.6192H44.9714C40.7393 53.6192 37.3084 50.1882 37.3084 45.9554V37.5536H34.7541Z" fill="#68C184"/>
<path d="M34.7541 0V8.40178C34.7541 12.6339 31.3231 16.0648 27.0903 16.0648H18.6885V18.6192H27.0903C31.3224 18.6192 34.7533 22.0501 34.7533 26.283V34.6847H37.3076V26.283C37.3076 22.0509 40.7386 18.6199 44.9714 18.6199H53.3732V16.0656H44.9714C40.7393 16.0656 37.3084 12.6347 37.3084 8.40178V0H34.7541Z" fill="#68C184"/>
<path d="M64.8609 65.2097V62.6554H62.3066V65.2097H64.8609Z" fill="#001E0A"/>
<path d="M64.8609 46.5898V44.0354H62.3066V46.5898H64.8609Z" fill="#001E0A"/>
<path d="M46.241 46.5897V44.0354H43.6867V46.5897H46.241Z" fill="#001E0A"/>
<path d="M46.241 65.2097V62.6554H43.6867V65.2097H46.241Z" fill="#001E0A"/>
<path d="M64.7985 27.9082V25.3539H62.2441V27.9082H64.7985Z" fill="#001E0A"/>
<path d="M46.1786 27.909V25.3546H43.6242V27.909H46.1786Z" fill="#001E0A"/>
<path d="M64.7985 9.28824V6.73389H62.2441V9.28824H64.7985Z" fill="#001E0A"/>
<path d="M46.1786 9.28896V6.73462H43.6242V9.28896H46.1786Z" fill="#001E0A"/>
<path d="M28.0902 65.2105V62.6561H25.5359V65.2105H28.0902Z" fill="#001E0A"/>
<path d="M9.47028 65.2097V62.6554H6.91593V65.2097H9.47028Z" fill="#001E0A"/>
<path d="M9.47028 46.5906V44.0363H6.91593V46.5906H9.47028Z" fill="#001E0A"/>
<path d="M28.0285 46.5906V44.0363H25.4742V46.5906H28.0285Z" fill="#001E0A"/>
<path d="M28.0285 9.28897V6.73462H25.4742V9.28897H28.0285Z" fill="#001E0A"/>
<path d="M9.4086 27.909V25.3546H6.85425V27.909H9.4086Z" fill="#001E0A"/>
<path d="M28.0285 27.909V25.3546H25.4742V27.909H28.0285Z" fill="#001E0A"/>
<path d="M9.4086 9.28897V6.73462H6.85425V9.28897H9.4086Z" fill="#001E0A"/>
</g>
<defs>
<clipPath id="clip0_466_1768">
<rect width="72" height="72.2384" fill="white"/>
</clipPath>
</defs>
</svg>
