<svg width="18" height="12" viewBox="0 0 18 12" fill="none" xmlns="http://www.w3.org/2000/svg">
<path d="M15.646 1.34547L15.646 1.3455L8.99935 8.40516L2.35347 1.35148C2.35335 1.35134 2.35322 1.35121 2.3531 1.35108C2.0173 0.988973 1.46548 0.990269 1.12589 1.3507C0.960947 1.52576 0.876297 1.75882 0.875015 1.98569L0.875 1.98569L0.875 1.99093L0.875015 1.99093C0.876297 2.2178 0.960947 2.45086 1.12588 2.62592L8.9084 10.886L8.99938 10.9826L9.09036 10.886L16.8729 2.62592C17.2089 2.26927 17.209 1.70266 16.8732 1.34586C16.5375 0.983742 15.9856 0.985035 15.646 1.34547Z" fill="#68C184" stroke="#68C184" stroke-width="0.25"/>
</svg>
